# xmcd
#
# Track frame offsets:
#	150
#	22623
#	41251
#	61789
#	81935
#	100874
#	116234
#	137861
#	170914
#	188521
#	207141
#	233102
#
# Disc length: 3499 seconds
#
# Revision: 1
# Processed by: cddbd v1.5.2PL0 Copyright (c) Steve Scherf et al.
# Submitted via: audiograbber 1.83.01
#
DISCID=960da90c
DTITLE=Mavis Staples - We'll Never Turn Back
DYEAR=2007
DGENRE=R&B
TTITLE0=Down In Mississippi
TTITLE1=Eyes On The Prize
TTITLE2=We Shall Not Be Moved
TTITLE3=The Mississippi River
TTITLE4=On My Way
TTITLE5=This Little Light Of Mine
TTITLE6=99 and 1/2
TTITLE7=My Own Eyes
TTITLE8=Turn Me Around
TTITLE9=We'll Never Turn Back
TTITLE10=I'll Be Rested
TTITLE11=Jesus Is On The Main Line
EXTD=
EXTT0=
EXTT1=
EXTT2=
EXTT3=
EXTT4=
EXTT5=
EXTT6=
EXTT7=
EXTT8=
EXTT9=
EXTT10=
EXTT11=
PLAYORDER=
